<?xml version="1.0" standalone="no"?><!DOCTYPE svg PUBLIC "-//W3C//DTD SVG 1.1//EN" "http://www.w3.org/Graphics/SVG/1.1/DTD/svg11.dtd"><svg t="1561021804940" class="icon" viewBox="0 0 1448 1024" version="1.1" xmlns="http://www.w3.org/2000/svg" p-id="1756" width="45.25" height="32" xmlns:xlink="http://www.w3.org/1999/xlink"><defs><style type="text/css"></style></defs><path d="M1163.33143 817.583067h-31.994625V500.389048c0-10.836889-8.77272-19.609609-19.609609-19.609609h-46.787838v-10.664875c0-4.128339-3.440282-7.568621-7.568621-7.568621h-53.496388c-4.128339 0-7.568621 3.440282-7.568621 7.568621v10.664875h-42.831513v-230.498908c0-10.836889-8.77272-19.609609-19.609609-19.609609h-74.998152v-33.198723c0-10.836889-8.77272-19.609609-19.609609-19.609609h-40.251302V144.319839c0-6.70855-5.504452-12.213002-12.213001-12.213002s-12.213002 5.504452-12.213002 12.213002v33.198723h-40.251302c-10.836889 0-19.609609 8.77272-19.609609 19.609609V230.498908h-74.998152c-10.836889 0-19.609609 8.77272-19.609609 19.609609v230.498908h-42.831513v-10.664875c0-4.128339-3.440282-7.568621-7.568621-7.568621H516.042332c-4.128339 0-7.568621 3.440282-7.568621 7.568621v10.664875h-46.787838c-10.836889 0-19.609609 8.77272-19.609609 19.609608v317.19402h-31.994624c-6.70855 0-12.213002 5.504452-12.213002 12.213002 0 6.70855 5.504452 12.213002 12.213002 12.213002h753.421804c6.70855 0 12.213002-5.504452 12.213001-12.213002-0.172014-6.70855-5.504452-12.040988-12.385015-12.040988z m-591.212498-94.951789h-39.563246c-6.536536 0-11.69696-5.160423-11.696959-11.696959s5.160423-11.69696 11.696959-11.69696h39.563246c6.536536 0 11.69696 5.160423 11.696959 11.69696s-5.160423 11.69696-11.696959 11.696959z m0-114.389383h-39.563246c-6.536536 0-11.69696-5.160423-11.696959-11.69696s5.160423-11.69696 11.696959-11.696959h39.563246c6.536536 0 11.69696 5.160423 11.696959 11.696959s-5.160423 11.69696-11.696959 11.69696z m176.830505 114.389383h-39.563245c-6.536536 0-11.69696-5.160423-11.69696-11.696959s5.160423-11.69696 11.69696-11.69696h39.563245c6.536536 0 11.69696 5.160423 11.69696 11.69696s-5.160423 11.69696-11.69696 11.696959z m0-114.389383h-39.563245c-6.536536 0-11.69696-5.160423-11.69696-11.69696s5.160423-11.69696 11.69696-11.696959h39.563245c6.536536 0 11.69696 5.160423 11.69696 11.696959s-5.160423 11.69696-11.69696 11.69696z m0-116.109525h-39.563245c-6.536536 0-11.69696-5.160423-11.69696-11.696959s5.160423-11.69696 11.69696-11.69696h39.563245c6.536536 0 11.69696 5.160423 11.69696 11.69696s-5.160423 11.69696-11.69696 11.696959z m0-114.389383h-39.563245c-6.536536 0-11.69696-5.160423-11.69696-11.69696s5.160423-11.69696 11.69696-11.696959h39.563245c6.536536 0 11.69696 5.160423 11.69696 11.696959s-5.160423 11.69696-11.69696 11.69696z m115.249454 344.888291h-39.563245c-6.536536 0-11.69696-5.160423-11.69696-11.696959s5.160423-11.69696 11.69696-11.69696h39.563245c6.536536 0 11.69696 5.160423 11.69696 11.69696s-5.160423 11.69696-11.69696 11.696959z m0-114.389383h-39.563245c-6.536536 0-11.69696-5.160423-11.69696-11.69696s5.160423-11.69696 11.69696-11.696959h39.563245c6.536536 0 11.69696 5.160423 11.69696 11.696959s-5.160423 11.69696-11.69696 11.69696z m0-116.109525h-39.563245c-6.536536 0-11.69696-5.160423-11.69696-11.696959s5.160423-11.69696 11.69696-11.69696h39.563245c6.536536 0 11.69696 5.160423 11.69696 11.69696s-5.160423 11.69696-11.69696 11.696959z m0-114.389383h-39.563245c-6.536536 0-11.69696-5.160423-11.69696-11.69696s5.160423-11.69696 11.69696-11.696959h39.563245c6.536536 0 11.69696 5.160423 11.69696 11.696959s-5.160423 11.69696-11.69696 11.69696z m176.830506 344.888291h-39.563245c-6.536536 0-11.69696-5.160423-11.69696-11.696959s5.160423-11.69696 11.69696-11.69696h39.563245c6.536536 0 11.69696 5.160423 11.696959 11.69696s-5.332437 11.69696-11.696959 11.696959z m0-114.389383h-39.563245c-6.536536 0-11.69696-5.160423-11.69696-11.69696s5.160423-11.69696 11.69696-11.696959h39.563245c6.536536 0 11.69696 5.160423 11.696959 11.696959s-5.332437 11.69696-11.696959 11.69696z" p-id="1757"></path></svg>