<?xml version="1.0" standalone="no"?><!DOCTYPE svg PUBLIC "-//W3C//DTD SVG 1.1//EN" "http://www.w3.org/Graphics/SVG/1.1/DTD/svg11.dtd"><svg t="1560236808113" class="icon" style="" viewBox="0 0 1024 1024" version="1.1" xmlns="http://www.w3.org/2000/svg" p-id="3703" xmlns:xlink="http://www.w3.org/1999/xlink" width="32" height="32"><defs><style type="text/css"></style></defs><path d="M671.672075 807.841824l-12.086033-1.711297-5.561715 10.695605a235.303309 235.303309 0 1 1-328.889852-310.172544l8.128659-4.813022v-9.519089c0.855648-28.236397-13.369506-48.45109-38.183309-54.226717l-6.738232-1.497385-5.989538 3.52955a314.450786 314.450786 0 1 0 438.519803 419.695539l3.850418-6.952143-2.887813-7.807792a60.216256 60.216256 0 0 0-50.162388-37.220705z" fill="" p-id="3704"></path><path d="M893.498922 805.167922c-2.994769-21.39121-16.578188-37.541573-30.268562-35.616364l-70.911861 9.839956-57.64931-189.633075a10.695605 10.695605 0 0 1 0-1.069561 37.969398 37.969398 0 0 0-35.830277-25.99032H435.620074V414.029649h157.760173v-78.826609H435.620074v-50.162387a39.466782 39.466782 0 1 0-78.826609 0v305.787346a44.065892 44.065892 0 0 0-1.711297 11.337341 39.680694 39.680694 0 0 0 17.540793 33.156376A37.755486 37.755486 0 0 0 407.918457 641.846035h260.117113l61.71364 203.216494a30.268562 30.268562 0 0 0 28.98509 19.145133h0.855648a48.985871 48.985871 0 0 0 16.364276-2.139121h0.641736l97.330005-13.369506c13.79733-2.887813 22.567726-21.92599 19.572957-43.531113zM406.955852 197.229736a98.613478 98.613478 0 1 0-98.506521-98.506521 98.506522 98.506522 0 0 0 98.506521 98.506521z" fill="" p-id="3705"></path></svg>