<?xml version="1.0" standalone="no"?><!DOCTYPE svg PUBLIC "-//W3C//DTD SVG 1.1//EN" "http://www.w3.org/Graphics/SVG/1.1/DTD/svg11.dtd"><svg t="1560238980338" class="icon" style="" viewBox="0 0 1024 1024" version="1.1" xmlns="http://www.w3.org/2000/svg" p-id="5156" xmlns:xlink="http://www.w3.org/1999/xlink" width="32" height="32"><defs><style type="text/css"></style></defs><path d="M768 768 1024 768 1024 1024 768 1024 768 768ZM384 768 640 768 640 1024 384 1024 384 768ZM0 768 256 768 256 1024 0 1024 0 768ZM768 384 1024 384 1024 640 768 640 768 384ZM384 384 640 384 640 640 384 640 384 384ZM0 384 256 384 256 640 0 640 0 384ZM768 0 1024 0 1024 256 768 256 768 0ZM384 0 640 0 640 256 384 256 384 0ZM0 0 256 0 256 256 0 256 0 0Z" p-id="5157"></path></svg>