<?xml version="1.0" standalone="no"?><!DOCTYPE svg PUBLIC "-//W3C//DTD SVG 1.1//EN" "http://www.w3.org/Graphics/SVG/1.1/DTD/svg11.dtd"><svg t="1561021851147" class="icon" viewBox="0 0 1024 1024" version="1.1" xmlns="http://www.w3.org/2000/svg" p-id="2997" xmlns:xlink="http://www.w3.org/1999/xlink" width="32" height="32"><defs><style type="text/css"></style></defs><path d="M869.9 994H660.8c-66.7 0-120.6-53.9-120.6-120.7V543.2h329.7c66.7 0 120.6 53.9 120.6 120.7v209.4c0 66.8-53.8 120.7-120.6 120.7z m-511.4 0H151.1c-66.7 0-120.6-53.9-120.6-120.7V663.9c0-66.8 53.8-120.7 120.6-120.7h328v330.1c0 66.8-53.8 120.7-120.6 120.7z m511.4-512H540.2V153.7C540.2 86.9 594.1 33 660.8 33H870c66.7 0 120.6 53.9 120.6 120.7v207.7c-0.1 66.2-53.9 120.6-120.7 120.6z m-390.8 0H151.6C84.9 482 31 428.1 31 361.3V153.7C31.1 86.9 84.9 33 151.6 33h207.5c66.7 0 120.6 53.9 120.6 120.7V482h-0.6z" fill="#595757" p-id="2998"></path></svg>