<?xml version="1.0" standalone="no"?><!DOCTYPE svg PUBLIC "-//W3C//DTD SVG 1.1//EN" "http://www.w3.org/Graphics/SVG/1.1/DTD/svg11.dtd"><svg t="1560236787214" class="icon" style="" viewBox="0 0 1024 1024" version="1.1" xmlns="http://www.w3.org/2000/svg" p-id="3221" xmlns:xlink="http://www.w3.org/1999/xlink" width="32" height="32"><defs><style type="text/css"></style></defs><path d="M338.297263 511.703579a183.242105 183.242105 0 1 1 183.242105-183.242105 185.128421 185.128421 0 0 1-183.242105 183.242105z m0-297.957053a117.867789 117.867789 0 1 0 117.86779 117.86779 119.511579 119.511579 0 0 0-117.86779-117.86779zM610.169263 881.690947a30.935579 30.935579 0 0 1-32.741052-32.741052 242.310737 242.310737 0 0 0-484.594527 0 32.741053 32.741053 0 1 1-65.482105 0 307.792842 307.792842 0 1 1 615.558737 0 30.935579 30.935579 0 0 1-32.741053 32.741052z" fill="" p-id="3222"></path><path d="M770.613895 465.866105a141.850947 141.850947 0 0 1-140.8-140.8 140.8 140.8 0 1 1 140.8 140.8z m0-212.88421a76.153263 76.153263 0 0 0-75.317895 75.317894 75.317895 75.317895 0 1 0 75.317895-75.317894zM967.060211 727.821474a30.935579 30.935579 0 0 1-32.741053-32.741053 164.190316 164.190316 0 0 0-163.705263-163.705263 170.603789 170.603789 0 0 0-94.962527 29.480421 32.741053 32.741053 0 1 1-39.289263-52.385684 239.831579 239.831579 0 0 1 130.964211-42.576842 229.861053 229.861053 0 0 1 229.187368 229.187368 26.947368 26.947368 0 0 1-29.453473 32.741053z" fill="" p-id="3223"></path></svg>