<?xml version="1.0" standalone="no"?><!DOCTYPE svg PUBLIC "-//W3C//DTD SVG 1.1//EN" "http://www.w3.org/Graphics/SVG/1.1/DTD/svg11.dtd"><svg t="1556940475340" class="icon" style="" viewBox="0 0 1024 1024" version="1.1" xmlns="http://www.w3.org/2000/svg" p-id="3570" xmlns:xlink="http://www.w3.org/1999/xlink" width="32" height="32"><defs><style type="text/css"></style></defs><path d="M809.3 204.2H593.8L553 149.8c-24.1-32.1-62.5-51.3-102.7-51.3H214.7c-70.8 0-128.4 57.6-128.4 128.4v570.2c0 70.8 57.6 128.4 128.4 128.4h594.5c70.8 0 128.4-57.6 128.4-128.4V332.6c0.1-70.8-57.5-128.4-128.3-128.4z m0 592.9H214.7V226.9h235.6l79.2 105.7h279.7v464.5z" p-id="3571" fill="#1296db"></path><path d="M314.1 473.7c0 35.5 28.8 64.2 64.2 64.2h256.9c35.5 0 64.2-28.8 64.2-64.2 0-35.5-28.8-64.2-64.2-64.2H378.4c-35.5 0-64.3 28.7-64.3 64.2zM640.4 572.9H383.5c-35.5 0-64.2 28.8-64.2 64.2 0 35.5 28.8 64.2 64.2 64.2h256.9c35.5 0 64.2-28.8 64.2-64.2 0-35.5-28.7-64.2-64.2-64.2z" p-id="3572" fill="#1296db"></path></svg>