<?xml version="1.0" standalone="no"?><!DOCTYPE svg PUBLIC "-//W3C//DTD SVG 1.1//EN" "http://www.w3.org/Graphics/SVG/1.1/DTD/svg11.dtd"><svg t="1561021883121" class="icon" viewBox="0 0 1024 1024" version="1.1" xmlns="http://www.w3.org/2000/svg" p-id="3630" xmlns:xlink="http://www.w3.org/1999/xlink" width="32" height="32"><defs><style type="text/css"></style></defs><path d="M515.673149 611.616822L241.376555 337.295856A197.698265 197.698265 0 0 1 520.986047 57.783849l47.864816 47.791704-51.691077 51.691077-47.986672-47.864816a124.59475 124.59475 0 0 0-176.202966 176.202965l274.41845 274.223481z" fill="" p-id="3631"></path><path d="M515.721892 613.834591l-51.422996-52.032273 278.244711-274.613418a124.602061 124.602061 0 0 0-176.373563-176.056739l-47.864817 47.864816-51.691077-51.691077 47.864816-47.864817a197.712888 197.712888 0 1 1 279.609492 279.609492z" fill="" p-id="3632"></path><path d="M567.87602 400.197634a24.371088 24.371088 0 0 1-17.230359-41.601447l108.451341-108.451341a24.371088 24.371088 0 0 1 34.460718 34.460718l-108.451341 108.451342a24.371088 24.371088 0 0 1-17.230359 7.140728zM513.041072 803.539139a24.371088 24.371088 0 0 1-7.652522-47.523621l224.555204-74.331819a24.388148 24.388148 0 0 1 15.329414 46.305067l-224.360235 74.283076a24.371088 24.371088 0 0 1-7.871861 1.267297zM918.137295 829.275008a24.371088 24.371088 0 0 1-20.593569-37.360878l78.913582-125.340505a24.371088 24.371088 0 1 1 41.235881 25.97958l-78.889212 125.316134a24.371088 24.371088 0 0 1-20.666682 11.405669z" fill="" p-id="3633"></path><path d="M726.434318 913.428374a24.371088 24.371088 0 0 1-9.577838-46.792489l189.631435-80.88764a24.375962 24.375962 0 1 1 19.131304 44.842801L735.987784 911.478687a24.371088 24.371088 0 0 1-9.553466 1.949687zM812.513 627.04372h-48.742176v-191.508008a59.197372 59.197372 0 0 1 118.370374 0v176.666016h-48.742176v-176.666016a10.455197 10.455197 0 0 0-20.886022 0z" fill="" p-id="3634"></path><path d="M951.720654 516.130899h-48.742176V370.440536a10.455197 10.455197 0 1 0-20.886022 0v145.202942h-48.742176V370.440536a59.197372 59.197372 0 1 1 118.370374 0z" fill="" p-id="3635"></path><path d="M1021.397594 686.362948h-48.742175V432.318728a10.455197 10.455197 0 0 0-20.886023 0v148.29807h-48.790918v-148.29807a59.197372 59.197372 0 0 1 118.370374 0zM742.860431 702.862175h-48.742176v-213.295761a59.197372 59.197372 0 1 1 118.370374 0v179.761144h-48.742176v-179.761144a10.455197 10.455197 0 1 0-20.886022 0z" fill="" p-id="3636"></path><path d="M782.024769 783.262394a24.371088 24.371088 0 0 1-15.158817-43.45365l150.491468-119.418331a10.455197 10.455197 0 1 0-12.98979-16.353l-150.052788 119.077136a24.371088 24.371088 0 1 1-30.293262-38.189495l150.077159-119.125877a59.197372 59.197372 0 0 1 73.600686 92.610134l-150.491468 119.41833a24.371088 24.371088 0 0 1-15.183188 5.434753zM511.773775 1024a24.371088 24.371088 0 0 1-24.371088-24.371088v-215.001737a24.371088 24.371088 0 0 1 48.742176 0v215.001737a24.371088 24.371088 0 0 1-24.371088 24.371088zM725.069537 1022.87893a24.371088 24.371088 0 0 1-24.371088-24.371088v-108.890021a24.371088 24.371088 0 0 1 48.742176 0v108.890021a24.371088 24.371088 0 0 1-24.371088 24.371088z" fill="" p-id="3637"></path><path d="M510.75019 803.539139a24.371088 24.371088 0 0 1-7.652522-1.242926l-224.384606-74.307447a24.388148 24.388148 0 1 1 15.329414-46.305067l224.360235 74.283076a24.371088 24.371088 0 0 1-7.652521 47.523622zM105.72708 829.275008a24.371088 24.371088 0 0 1-20.642311-11.381298l-78.962325-125.340505a24.388148 24.388148 0 0 1 41.284623-25.97958l78.913582 125.340505a24.371088 24.371088 0 0 1-20.593569 37.360878z" fill="" p-id="3638"></path><path d="M297.454428 913.428374a24.371088 24.371088 0 0 1-9.553466-1.949687l-189.631435-80.887641a24.375962 24.375962 0 1 1 19.131304-44.842801l189.631435 80.88764a24.371088 24.371088 0 0 1-9.577838 46.792489zM260.117922 627.04372h-48.742176v-191.508008a10.455197 10.455197 0 0 0-20.886022 0v176.666016h-48.742176v-176.666016a59.197372 59.197372 0 0 1 118.370374 0z" fill="" p-id="3639"></path><path d="M120.837154 516.130899h-48.742175V370.440536a59.197372 59.197372 0 0 1 118.370374 0v145.202942h-48.742176V370.440536a10.455197 10.455197 0 0 0-20.886023 0z" fill="" p-id="3640"></path><path d="M51.208956 686.362948h-48.742175V432.318728a59.197372 59.197372 0 0 1 118.370373 0v148.29807h-48.742175v-148.29807a10.455197 10.455197 0 0 0-20.886023 0zM329.74612 702.862175h-48.742176v-213.295761a10.455197 10.455197 0 1 0-20.886022 0v179.761144h-48.742176v-179.761144a59.197372 59.197372 0 1 1 118.370374 0z" fill="" p-id="3641"></path><path d="M241.839606 783.262394a24.371088 24.371088 0 0 1-15.134446-5.288526l-150.491467-119.418331a59.197372 59.197372 0 1 1 73.600685-92.610134l150.077159 119.125878a24.371088 24.371088 0 0 1-30.293262 38.043268l-150.10153-119.125878a10.455197 10.455197 0 1 0-12.98979 16.353l150.491468 119.418331a24.371088 24.371088 0 0 1-15.158817 43.45365zM512.0906 1024a24.371088 24.371088 0 0 1-24.371088-24.371088v-215.001737a24.371088 24.371088 0 1 1 48.742175 0v215.001737a24.371088 24.371088 0 0 1-24.371087 24.371088zM298.746096 1022.87893a24.371088 24.371088 0 0 1-24.371088-24.371088v-108.890021a24.371088 24.371088 0 0 1 48.742176 0v108.890021a24.371088 24.371088 0 0 1-24.371088 24.371088z" fill="" p-id="3642"></path></svg>