<?xml version="1.0" standalone="no"?><!DOCTYPE svg PUBLIC "-//W3C//DTD SVG 1.1//EN" "http://www.w3.org/Graphics/SVG/1.1/DTD/svg11.dtd"><svg t="1560238886234" class="icon" style="" viewBox="0 0 1024 1024" version="1.1" xmlns="http://www.w3.org/2000/svg" p-id="1174" xmlns:xlink="http://www.w3.org/1999/xlink" width="32" height="32"><defs><style type="text/css"></style></defs><path d="M445.257143 890.434783a445.217391 445.217391 0 1 1 445.217391-445.217392 446.065424 446.065424 0 0 1-445.217391 445.217392z m0-805.63147a360.414079 360.414079 0 1 0 360.414079 360.414078 360.838095 360.838095 0 0 0-360.414079-360.414078z" p-id="1175"></path><path d="M975.277847 1017.639752a42.401656 42.401656 0 0 1-30.105176-12.720497l-212.008282-212.008282a42.401656 42.401656 0 1 1 59.786336-59.786335l212.008281 212.008281a42.401656 42.401656 0 0 1 0 59.786336 42.401656 42.401656 0 0 1-29.681159 12.720497z" p-id="1176"></path></svg>