<?xml version="1.0" standalone="no"?><!DOCTYPE svg PUBLIC "-//W3C//DTD SVG 1.1//EN" "http://www.w3.org/Graphics/SVG/1.1/DTD/svg11.dtd"><svg t="1560239051170" class="icon" style="" viewBox="0 0 1024 1024" version="1.1" xmlns="http://www.w3.org/2000/svg" p-id="8223" xmlns:xlink="http://www.w3.org/1999/xlink" width="32" height="32"><defs><style type="text/css"></style></defs><path d="M800 832a32 32 0 0 0 32-32V480a32 32 0 0 0-32-32H224a32 32 0 0 0-32 32v320a32 32 0 0 0 32 32z m0 64H224a96 96 0 0 1-96-96V480a96 96 0 0 1 96-96h576a96 96 0 0 1 96 96v320a96 96 0 0 1-96 96z" p-id="8224"></path><path d="M480 576a32 32 0 0 1 64 0v128a32 32 0 0 1-64 0zM352 416a32 32 0 0 1-64 0v-96a224 224 0 0 1 448 0v96a32 32 0 0 1-64 0v-96a160 160 0 0 0-320 0z" p-id="8225"></path></svg>