<?xml version="1.0" standalone="no"?><!DOCTYPE svg PUBLIC "-//W3C//DTD SVG 1.1//EN" "http://www.w3.org/Graphics/SVG/1.1/DTD/svg11.dtd"><svg t="1647782401633" class="icon" viewBox="0 0 1053 1024" version="1.1" xmlns="http://www.w3.org/2000/svg" p-id="4421" xmlns:xlink="http://www.w3.org/1999/xlink" width="205.6640625" height="200"><defs><style type="text/css">@font-face { font-family: feedback-iconfont; src: url("//at.alicdn.com/t/font_1031158_u69w8yhxdu.woff2?t=1630033759944") format("woff2"), url("//at.alicdn.com/t/font_1031158_u69w8yhxdu.woff?t=1630033759944") format("woff"), url("//at.alicdn.com/t/font_1031158_u69w8yhxdu.ttf?t=1630033759944") format("truetype"); }
</style></defs><path d="M160.914286 73.142857h541.257143v833.828572H160.914286z" fill="#F4B1B2" p-id="4422"></path><path d="M731.428571 936.228571H131.657143V51.2H731.428571v885.028571zM190.171429 877.714286h482.742857V102.4H190.171429V877.714286z" fill="#D72822" p-id="4423"></path><path d="M702.171429 219.428571h212.114285v687.542858H702.171429z" fill="#FFFEFE" p-id="4424"></path><path d="M936.228571 936.228571H672.914286V190.171429h263.314285v746.057142z m-204.8-51.2h153.6V248.685714H731.428571v636.342857z" fill="#D72822" p-id="4425"></path><path d="M1024 943.542857H29.257143c-14.628571 0-29.257143-14.628571-29.257143-29.257143s14.628571-29.257143 29.257143-29.257143H1024c14.628571 0 29.257143 14.628571 29.257143 29.257143s-14.628571 29.257143-29.257143 29.257143zM468.114286 197.485714h175.542857v58.514286H468.114286zM226.742857 197.485714h175.542857v58.514286H226.742857z" fill="#D72822" p-id="4426"></path><path d="M468.114286 358.4h175.542857v58.514286H468.114286zM226.742857 358.4h175.542857v58.514286H226.742857z" fill="#D72822" p-id="4427"></path><path d="M468.114286 512h175.542857v58.514286H468.114286zM226.742857 512h175.542857v58.514286H226.742857z" fill="#D72822" p-id="4428"></path><path d="M782.628571 570.514286h58.514286v175.542857h-58.514286zM782.628571 329.142857h58.514286v175.542857h-58.514286z" fill="#D72822" p-id="4429"></path></svg>