<?xml version="1.0" standalone="no"?><!DOCTYPE svg PUBLIC "-//W3C//DTD SVG 1.1//EN" "http://www.w3.org/Graphics/SVG/1.1/DTD/svg11.dtd"><svg t="1620787281388" class="icon" viewBox="0 0 1024 1024" version="1.1" xmlns="http://www.w3.org/2000/svg" p-id="8211" xmlns:xlink="http://www.w3.org/1999/xlink" width="200" height="200"><defs><style type="text/css"></style></defs><path d="M541.4 669l208.5 104.1 210-102.6c-0.8-30-25.3-54.2-55.6-54.2H596.8c-29.8 0-53.8 23.4-55.4 52.7z m217.5 146.2c-2.9 1.4-6 2.1-9.2 2.1-3.2 0-6.4-0.7-9.3-2.2L541 715.5v149.2c0 30.8 24.9 55.7 55.7 55.7h307.5c30.8 0 55.7-24.9 55.7-55.7V716.9l-201 98.3zM605.3 509.7c59.5-39.8 98.8-107.6 98.8-184.4C704 194.7 590.5 90.1 456.9 105c-99.1 11.1-180.2 89.6-194.1 188.3-12.6 89.7 28.9 171.1 96.5 216.4-162.4 49-283.1 193.1-295.2 371.5-1.1 16 11.7 29.7 27.8 29.7h13.9c14.5 0 26.5-11.2 27.5-25.7C146.4 703.3 297.9 561 482.3 561c9.3 0 18.4 0.8 27.6 1.5 9.2-4 19.4-6.3 30.1-6.3h192.8C669 524 621 514.5 605.3 509.7zM495.9 636H400c-4.8 0-8.6 3.9-8.6 8.6v32c0 4.8 3.9 8.6 8.6 8.6h95.8c4.8 0 8.6-3.9 8.6-8.6v-32c0.1-4.7-3.8-8.6-8.5-8.6z m0 91.9h-95.8c-4.8 0-8.6 3.9-8.6 8.6v32c0 4.8 3.9 8.6 8.6 8.6h95.8c4.8 0 8.6-3.9 8.6-8.6v-32c0-4.8-3.9-8.6-8.6-8.6z m0 100.1H400c-4.8 0-8.6 3.9-8.6 8.6v32c0 4.8 3.9 8.6 8.6 8.6h95.9c4.8 0 8.6-3.9 8.6-8.6v-32c0-4.7-3.9-8.6-8.6-8.6z" p-id="8212" fill="#2c71da"></path></svg>