<?xml version="1.0" standalone="no"?><!DOCTYPE svg PUBLIC "-//W3C//DTD SVG 1.1//EN" "http://www.w3.org/Graphics/SVG/1.1/DTD/svg11.dtd"><svg t="1620786946233" class="icon" viewBox="0 0 1024 1024" version="1.1" xmlns="http://www.w3.org/2000/svg" p-id="5542" data-spm-anchor-id="a313x.7781069.0.i13" xmlns:xlink="http://www.w3.org/1999/xlink" width="200" height="200"><defs><style type="text/css"></style></defs><path d="M684.193881 279.2861l60.377057 60.377057 125.167267-125.103308-60.377057-60.377057-125.103308 125.103308z m-45.154875-45.218833l125.103309-125.103309-54.045141-53.981182a31.979373 31.979373 0 1 1 45.218833-45.218834l259.160842 259.032924a31.979373 31.979373 0 1 1-45.218834 45.218834l-54.300976-54.237017-125.167267 125.103308 64.598334 64.598334-0.51167 0.51167 98.49647 97.537089a31.979373 31.979373 0 0 1-45.090917 45.41071L808.593643 495.210829l-417.842491 417.90645a197.888362 197.888362 0 0 1-254.555812 21.170345L55.159608 1013.916264a31.979373 31.979373 0 1 1-44.835081-45.602586L90.656713 889.196708a198.016279 198.016279 0 0 1 20.083046-256.15478l416.499358-416.499358-96.129996-95.170615a31.979373 31.979373 0 1 1 45.026958-45.41071l96.321872 95.362491 1.918762-1.918762 64.598334 64.598334z m-257.753749 583.303769a30.060611 30.060611 0 0 0 21.298263 8.762348 30.060611 30.060611 0 0 0 21.298263-7.227338 30.060611 30.060611 0 0 0 0-42.596526l-106.17152-108.090281a30.12457 30.12457 0 1 0-42.980278 42.34069l106.555272 106.811107z m120.306403-120.306403a30.060611 30.060611 0 0 0 21.042427 8.954225 30.060611 30.060611 0 0 0 21.298263-7.483174 30.060611 30.060611 0 0 0 0-42.276731L437.696872 547.912836a30.12457 30.12457 0 0 0-42.85236 42.34069l106.811106 106.811107zM607.571303 591.148949a30.060611 30.060611 0 0 0 21.298262 8.698389 30.060611 30.060611 0 0 0 21.298263-51.294914l-106.811107-106.555272a30.060611 30.060611 0 1 0-42.34069 42.276731l106.555272 106.811107z" fill="#b33f30" p-id="5543"></path></svg>