<?xml version="1.0" standalone="no"?><!DOCTYPE svg PUBLIC "-//W3C//DTD SVG 1.1//EN" "http://www.w3.org/Graphics/SVG/1.1/DTD/svg11.dtd"><svg t="1641545545441" class="icon" viewBox="0 0 1071 1024" version="1.1" xmlns="http://www.w3.org/2000/svg" p-id="4771" xmlns:xlink="http://www.w3.org/1999/xlink" width="209.1796875" height="200"><defs><style type="text/css"></style></defs><path d="M749.472052 380.484653a321.592246 321.592246 0 1 0 321.592245 321.592245A321.592246 321.592246 0 0 0 749.472052 380.484653z m117.784814 215.056542l-57.899839 57.899839h24.814217a24.814216 24.814216 0 0 1 0 49.628433h-60.38126v31.844911h60.38126a24.814216 24.814216 0 1 1 0 49.628433h-60.38126v69.231664a24.814216 24.814216 0 0 1-49.628433 0V784.129241h-60.38126a24.814216 24.814216 0 1 1 0-49.628433h60.38126v-32.093054h-60.38126a24.814216 24.814216 0 1 1 0-49.628433h24.814216l-57.403554-57.899838a24.814216 24.814216 0 0 1 35.236188-35.318901l82.714054 82.714055 82.714055-82.714055a24.814216 24.814216 0 0 1 35.401616 35.980613z" p-id="4772"></path><path d="M109.265267 0m63.110823 0l627.882391 0q63.110824 0 63.110824 63.110824l0 25.227787q0 63.110824-63.110824 63.110824l-627.882391 0q-63.110824 0-63.110823-63.110824l0-25.227787q0-63.110824 63.110823-63.110824Z" p-id="4773"></path><path d="M754.021325 281.889499v8.271406a68.239095 68.239095 0 0 1-2.315994 18.031664h-2.233279a392.643619 392.643619 0 0 0-198.513732 53.515993h-479.741519A71.547658 71.547658 0 0 1 0 290.243619v-8.271406a71.547658 71.547658 0 0 1 71.630372-71.464943h610.926009a71.464943 71.464943 0 0 1 71.464944 71.382229zM473.786107 420.683683a394.215186 394.215186 0 0 0-96.444588 151.449435h-306.042004A71.630372 71.630372 0 0 1 0 500.58546v-8.271405a71.630372 71.630372 0 0 1 71.630372-71.630372zM363.362843 782.47496H180.812924a71.464943 71.464943 0 0 1-71.464943-71.134088v-8.271405a71.464943 71.464943 0 0 1 71.464943-71.464944h180.978352a390.162197 390.162197 0 0 0-6.12084 70.803231 399.508885 399.508885 0 0 0 7.692407 80.067206zM483.050081 992.568659H71.630372A71.547658 71.547658 0 0 1 0 921.269144v-8.271406a71.630372 71.630372 0 0 1 71.630372-71.630371H380.484653A394.2979 394.2979 0 0 0 483.050081 992.568659z" p-id="4774"></path></svg>