<?xml version="1.0" standalone="no"?><!DOCTYPE svg PUBLIC "-//W3C//DTD SVG 1.1//EN" "http://www.w3.org/Graphics/SVG/1.1/DTD/svg11.dtd"><svg t="1639312195515" class="icon" viewBox="0 0 1024 1024" version="1.1" xmlns="http://www.w3.org/2000/svg" p-id="1729" xmlns:xlink="http://www.w3.org/1999/xlink" width="200" height="200"><defs><style type="text/css"></style></defs><path d="M431.445333 102.4c0 2.56 2.525867 5.12 2.525867 7.68 5.12 20.48 12.8 69.12-15.36 148.48-12.8 33.28-40.96 79.36-69.12 120.32-17.92 25.6-28.16 58.88-23.04 92.16 7.68 79.36 79.36 135.68 161.28 128 79.36-7.68 145.92-76.8 140.8-176.64C615.765333 217.6 431.445333 102.4 431.445333 102.4zM364.885333 634.88c-5.12 0-5.12 5.12-5.12 12.8 0 61.44-53.794133 87.04-104.994133 87.04s-104.96-25.6-104.96-87.04c0-7.68-2.56-12.8-5.12-12.8-5.12 0-5.12 5.12-5.12 12.8 0 76.8 51.2 138.24 117.76 138.24 66.56 0 117.76-61.44 117.76-138.24-5.12-7.68-5.12-12.8-10.24-12.8z" fill="#1296db" p-id="1730"></path><path d="M585.045333 634.88c-5.12 0-5.12 5.12-5.12 12.8 0 61.44-53.794133 87.04-104.994133 87.04s-104.96-25.6-104.96-87.04c0-7.68-2.56-12.8-5.12-12.8-5.12 0-5.12 5.12-5.12 12.8 0 76.8 51.2 138.24 117.76 138.24 66.56 0 117.76-61.44 117.76-138.24-2.56-7.68-2.56-12.8-10.24-12.8z" fill="#1296db" p-id="1731"></path><path d="M807.7312 634.88c-5.12 0-5.12 5.12-5.12 12.8 0 61.44-53.76 87.04-104.96 87.04-51.2 0-104.96-25.6-104.96-87.04 0-7.68-2.56-12.8-5.12-12.8-5.12 0-5.12 5.12-5.12 12.8 0 76.8 51.2 138.24 117.76 138.24 66.56 0 117.76-61.44 117.76-138.24-5.12-7.68-2.56-12.8-10.24-12.8zM362.2912 770.56c-5.12 0-5.12 5.12-5.12 12.8 0 61.44-53.76 87.04-104.96 87.04-51.2 0-104.96-25.6-104.96-87.04 0-7.68-2.56-12.8-5.12-12.8-5.12 0-5.12 5.12-5.12 12.8 0 76.8 51.2 138.24 117.76 138.24 66.56 0 117.76-61.44 117.76-138.24-2.56-5.12-2.56-12.8-10.24-12.8z" fill="#1296db" p-id="1732"></path><path d="M585.045333 770.56c-5.12 0-5.12 5.12-5.12 12.8 0 61.44-53.794133 87.04-104.994133 87.04s-104.96-25.6-104.96-87.04c0-7.68-2.56-12.8-5.12-12.8-5.12 0-5.12 5.12-5.12 12.8 0 76.8 51.2 138.24 117.76 138.24 66.56 0 117.76-61.44 117.76-138.24-2.56-5.12-2.56-12.8-10.24-12.8z" fill="#1296db" p-id="1733"></path><path d="M807.7312 770.56c-5.12 0-5.12 5.12-5.12 12.8 0 61.44-53.76 87.04-104.96 87.04-51.2 0-104.96-25.6-104.96-87.04 0-7.68-2.56-12.8-5.12-12.8-5.12 0-5.12 5.12-5.12 12.8 0 76.8 51.2 138.24 117.76 138.24 66.56 0 117.76-61.44 117.76-138.24-5.12-5.12-5.12-12.8-10.24-12.8z" fill="#1296db" p-id="1734"></path></svg>