<?xml version="1.0" standalone="no"?><!DOCTYPE svg PUBLIC "-//W3C//DTD SVG 1.1//EN" "http://www.w3.org/Graphics/SVG/1.1/DTD/svg11.dtd"><svg t="1641719321954" class="icon" viewBox="0 0 1024 1024" version="1.1" xmlns="http://www.w3.org/2000/svg" p-id="1382" xmlns:xlink="http://www.w3.org/1999/xlink" width="200" height="200"><defs><style type="text/css"></style></defs><path d="M873.54 761.86h-69.59v-35.07h72.02c20.2 0 36.57-16.36 36.57-36.57s-16.38-36.57-36.57-36.57h-28.58l45.34-45.36c14.29-14.29 14.29-37.43 0-51.71-14.29-14.29-37.46-14.29-51.71 0l-73.64 73.68-73.66-73.68c-14.29-14.29-37.43-14.29-51.71 0s-14.29 37.43 0 51.71l45.35 45.36h-28.58c-20.2 0-36.57 16.36-36.57 36.57s16.38 36.57 36.57 36.57h72.04v35.07H661.2c-20.2 0-36.57 16.36-36.57 36.57S641 835 661.2 835h69.61v79.29c0 20.21 16.38 36.57 36.57 36.57s36.57-16.36 36.57-36.57V835h69.59c20.2 0 36.57-16.36 36.57-36.57s-16.38-36.57-36.57-36.57z" fill="#35edce" p-id="1383"></path><path d="M672.19 871.57h-6.15c-36.27 0-70.45-24.1-76.8-59.81-3.57-20.1 1.13-39.08 11.27-54.12 4.93-7.31 4.68-16.92-0.56-24-9-12.15-14.32-27.18-14.32-43.42 0-18.41 6.65-35.41 18.1-48.12 5.79-6.43 5.6-15.4 2.45-20.36-17.97-28.32-14.71-66.35 9.97-91.03 13.82-13.82 32.18-21.43 51.72-21.43s37.9 7.61 51.72 21.43l32.19 32.2c8.62 8.62 22.59 8.62 31.2 0 0 0 25.77-25.88 43.73-39.95 9.07-7.1 14.11-18.18 14.11-29.7V197.12c0-25.01-24.5-42.67-48.23-34.76l-353.1 117.7c-22.41 7.47-37.53 28.44-37.53 52.06v545.59h-36.57v-545.6c0-39.36 25.19-74.31 62.53-86.76l168.7-56.23c14.98-5 25.09-19.02 25.09-34.81v-30.34c0-25.01-24.5-42.67-48.23-34.76l-353.1 117.7c-22.41 7.47-37.53 28.44-37.53 52.06v581.99c0 20.29-16.45 36.73-36.73 36.73h-14.84c-11.91 0-21.57 9.65-21.57 21.56v30.01c0 11.91 9.66 21.57 21.57 21.57h51.58v0.01h489.45c12.25 0 22.16-9.95 22.12-22.19l-0.12-35.05c-0.04-12.17-9.93-22.03-22.12-22.03z" fill="#2979ff" p-id="1384"></path></svg>