<?xml version="1.0" standalone="no"?><!DOCTYPE svg PUBLIC "-//W3C//DTD SVG 1.1//EN" "http://www.w3.org/Graphics/SVG/1.1/DTD/svg11.dtd"><svg t="1620786769208" class="icon" viewBox="0 0 1024 1024" version="1.1" xmlns="http://www.w3.org/2000/svg" p-id="4704" xmlns:xlink="http://www.w3.org/1999/xlink" width="200" height="200"><defs><style type="text/css"></style></defs><path d="M571.698085 222.161472c76.136688-72.003004 192.648892-75.175366 261.575666-6.248592 70.176493 70.176493 65.562148 189.861059-10.382275 265.901615L435.286519 869.32332c-76.040556 76.040556-195.725122 80.751033-265.901615 10.382275-70.176493-70.176493-65.562148-189.861059 10.382276-265.901615l280.994367-280.994367" fill="#C1D4FC" p-id="4705"></path><path d="M586.88697 656.390537c32.877206-26.340218 119.203905-89.499061 134.200525-104.303417 14.900488-14.900488 67.388659-64.216297 119.203906-89.499061l-419.136313 423.173864c-76.040556 76.040556-195.725122 80.751033-265.901614 10.382275 58.832895-1.249718 115.262486-21.918137 193.03342-60.851671 89.499061-44.797597 164.001502-119.39617 238.600076-178.90199zM570.448367 316.947803c-3.845287 0-7.690575-1.441983-10.57454-4.42208-5.767931-5.767931-5.767931-15.285017 0-21.052948l29.320315-29.320315c30.377769-28.64739 69.311303-45.758919 110.16748-48.45062 19.418701-1.345851 38.741269 0.672925 57.198648 5.767931 7.882839 2.21104 12.593316 10.382276 10.382276 18.361247-2.21104 7.882839-10.382276 12.593316-18.361247 10.382275-15.285017-4.325948-31.050695-5.767931-47.200901-4.710477-33.93466 2.307172-66.235073 16.534735-91.22944 40.08712l-29.224184 29.031919c-2.883965 2.883965-6.729253 4.325948-10.478407 4.325948z" fill="#FFFFFF" p-id="4706"></path><path d="M278.975591 942.095381c-56.814119 0-110.263612-22.110402-150.2546-62.197521-82.769808-82.865941-82.769808-217.739392 0-300.605333l349.536613-349.632745c2.595569-2.595569 6.921517-2.595569 9.517086 0s2.595569 6.921517 0 9.517086L138.238077 588.809613c-77.578671 77.674803-77.578671 203.896357 0 281.571161 37.491551 37.587683 87.480285 58.256102 140.737514 58.256102 53.257229 0 103.245963-20.668419 140.833647-58.256102l437.593691-437.593692c77.578671-77.674803 77.578671-203.896357 0-281.57116-75.271498-75.271498-199.666541-77.290274-277.245212-4.325948-2.691701 2.499437-6.921517 2.403305-9.517086-0.288397-2.499437-2.691701-2.403305-6.921517 0.288396-9.517086 82.769808-77.867067 215.528351-75.752159 295.894856 4.710477 82.769808 82.865941 82.769808 217.739392 0 300.605332L429.230192 879.89786c-40.08712 40.08712-93.440481 62.197522-150.254601 62.197521z" fill="#116FFF" p-id="4707"></path><path d="M622.840406 683.499812c-1.730379 0-3.460759-0.672925-4.80661-1.922643L364.82163 428.172738c-2.595569-2.595569-2.595569-6.921517 0-9.517086s6.921517-2.595569 9.517086 0l253.308299 253.308298c2.595569 2.595569 2.595569 6.921517 0 9.517086-1.345851 1.345851-3.07623 2.018776-4.806609 2.018776zM511.327075 211.4908c-1.730379 0-3.460759-0.672925-4.710477-2.018776-2.595569-2.595569-2.595569-6.921517 0-9.517086l31.531355-31.531356c2.595569-2.595569 6.921517-2.595569 9.517086 0s2.595569 6.921517 0 9.517086l-31.531355 31.531356c-1.345851 1.345851-3.07623 2.018776-4.806609 2.018776z" fill="#116FFF" p-id="4708"></path></svg>