<?xml version="1.0" standalone="no"?><!DOCTYPE svg PUBLIC "-//W3C//DTD SVG 1.1//EN" "http://www.w3.org/Graphics/SVG/1.1/DTD/svg11.dtd"><svg t="1641719316483" class="icon" viewBox="0 0 1024 1024" version="1.1" xmlns="http://www.w3.org/2000/svg" p-id="1247" xmlns:xlink="http://www.w3.org/1999/xlink" width="200" height="200"><defs><style type="text/css"></style></defs><path d="M553.89 875.24c0.15-0.02 0.29-0.05 0.44-0.07l-0.19-0.19-0.25 0.26zM901.12 548.89c11.03 0 17.16-12.76 10.27-21.37l-59.97-74.96c-5.27-6.58-15.28-6.58-20.54 0l-59.97 74.96c-6.89 8.61-0.76 21.37 10.27 21.37h119.94zM892.65 584.55h-103c-11.95 0-21.65 9.69-21.65 21.65v323.38c0 11.96 9.69 21.65 21.65 21.65h103c11.95 0 21.65-9.69 21.65-21.65V606.2c-0.01-11.96-9.7-21.65-21.65-21.65z" fill="#35edce" p-id="1248"></path><path d="M878.95 109.92h-39.68c-19.52 0-35.35 15.83-35.35 35.35v74.01c0 20.22-16.32 36.63-36.54 36.66-22.87 0.03-52.18 0.06-74.75 0.08-19.43 0.02-35.08-15.61-35.1-35.04-0.03-22.96-0.06-52.84-0.08-75.83-0.02-19.51-15.84-35.23-35.35-35.23H400.41c-19.52 0-35.35 15.83-35.35 35.35v74.09c0 20.23-16.32 36.64-36.55 36.65-24.44 0.02-48.97 0.02-73.41 0-20.23-0.01-36.55-16.43-36.55-36.65v-74.09c0-19.52-15.83-35.35-35.35-35.35h-38.13c-19.52 0-35.35 15.83-35.35 35.35v220.08h-0.01v548.94c0 20.48 16.46 36.94 36.57 36.94h548.68c20.14 0 36.46-16.33 36.46-36.46V536.5s0.37-19.75 10.97-31.82l59.98-74.97c9.51-11.7 23.41-18.65 38.77-18.65s29.26 6.95 38.77 18.65l13.17 17.55c0.73 1.1 1.46 2.56 2.56 3.29 1.83 2.19 4.75 3.29 7.68 3.29 6.22 0 10.97-4.75 10.97-10.97v-77.41h0.01V145.27c-0.01-19.52-15.83-35.35-35.35-35.35zM512 783.49c0 12.2-9.89 22.09-22.09 22.09H204.93c-12.2 0-22.09-9.89-22.09-22.09v-28.97c0-12.2 9.89-22.09 22.09-22.09h284.98c12.2 0 22.09 9.89 22.09 22.09v28.97zM182.84 636.86V607.9c0-12.2 9.89-22.09 22.09-22.09h283.68c12.2 0 22.09 9.89 22.09 22.09v28.97c0 12.2-9.89 22.09-22.09 22.09H204.93c-12.2-0.01-22.09-9.9-22.09-22.1z m438.55-146.63c0 12.2-9.89 22.09-22.09 22.09H204.6c-12.2 0-22.09-9.89-22.09-22.09v-28.97c0-12.2 9.89-22.09 22.09-22.09h394.7c12.2 0 22.09 9.89 22.09 22.09v28.97z" fill="#2979ff" p-id="1249"></path><path d="M277.97 219.46h29.21c12.13 0 21.97-9.83 21.97-21.97V95.15c0-12.13-9.84-21.97-21.97-21.97h-29.21c-12.13 0-21.97 9.84-21.97 21.97V197.5c0 12.13 9.84 21.96 21.97 21.96zM716.83 219.53h29.21c12.13 0 21.97-9.83 21.97-21.97V95.22c0-12.13-9.84-21.97-21.97-21.97h-29.21c-12.13 0-21.97 9.84-21.97 21.97v102.35c0 12.13 9.83 21.96 21.97 21.96z" fill="#2979ff" p-id="1250"></path></svg>