<?xml version="1.0" standalone="no"?><!DOCTYPE svg PUBLIC "-//W3C//DTD SVG 1.1//EN" "http://www.w3.org/Graphics/SVG/1.1/DTD/svg11.dtd"><svg t="1620787147980" class="icon" viewBox="0 0 1024 1024" version="1.1" xmlns="http://www.w3.org/2000/svg" p-id="7233" xmlns:xlink="http://www.w3.org/1999/xlink" width="200" height="200"><defs><style type="text/css"></style></defs><path d="M946.176 509.952c-36.864-32.768-254.976-220.16-274.944-230.912-19.456-13.312-19.456-6.656-26.112-22.016-2.56-20.992 2.56-249.856-153.6-249.856-144.384 0-140.288 225.28-140.8 247.808-3.584 14.848-28.16 36.864-62.976 62.976-34.816 28.16-226.816 172.032-233.472 211.456-6.656 39.424 4.096 78.336 22.016 84.992 19.456 6.656 95.744 0 107.008 22.016 8.704 24.064 34.816 48.128 41.472 84.992 4.096 36.864 6.656 54.272 41.472 62.976 26.624 6.144 70.656 29.696 97.28 34.304l-25.088 135.168c0 53.76 3.584 59.904 56.832 59.904l77.824 2.56 14.848-162.816-1.536-15.36 20.48 178.176h111.104c53.76 0 26.624-9.216 26.624-62.976l-24.064-136.192c49.152-9.728 130.56-73.216 156.16-96.768 15.36-13.312 24.064-36.864 36.864-63.488h6.656l-2.048-8.704c10.752-24.064 24.064-45.568 43.52-54.272 41.472-19.456 58.88 8.704 84.992 0 25.6-7.68 36.864-51.712-0.512-83.968zM495.104 36.352c58.368 1.536 99.84 79.872 113.664 110.592-56.832-20.992-56.32 6.656-110.592 8.192-50.176 1.536-61.952-24.576-109.056-1.536 2.56-17.92 29.184-117.248 105.984-117.248zM442.88 986.624L370.176 977.92l14.336-78.848 65.536 7.68-7.168 79.872z m104.448-6.144l-16.896-77.824 72.704-8.704 16.896 77.824-72.704 8.704z m307.2-431.616c-17.408 0-36.864 22.016-56.832 50.176l-25.088-23.552-40.448-65.536 37.376 137.216c-6.656 8.704-13.312 19.456-19.456 28.16-30.72 43.52-65.536 74.24-107.008 82.944l-26.112-33.28-36.864-154.112 22.016 187.392c-41.472-4.096-80.384-19.456-126.464-19.456-54.272 0-95.744 24.064-126.464 22.016l29.184-134.656-40.448 71.68-28.16 56.32c-19.456-4.608-36.864-15.36-43.52-34.816-8.704-32.768-24.064-67.584-41.472-104.96l62.976-148.48-73.728 109.568-26.624 6.144c-24.064-8.704-52.224-10.752-67.584-10.752-28.16 0-34.816-22.016-22.016-41.472 15.36-19.456 261.632-218.112 276.992-228.864 2.048-4.096 8.704-8.704 13.312-13.312 24.064 13.312 62.976 28.16 72.192 54.272C471.04 374.784 500.224 414.72 500.224 414.72s27.648-44.544 43.008-72.704c13.312-24.064 48.128-45.568 69.632-56.832 4.096 4.608 8.704 8.704 15.36 13.312 36.864 26.112 202.752 163.328 248.832 209.408 51.712 47.616 12.8 40.96-22.528 40.96z m0 0" fill="#75428e" p-id="7234"></path><path d="M903.168 499.2l-118.784-97.792-67.072-64-69.632-52.224-105.472-19.968H397.824L80.896 517.12v59.392l73.728 18.944 49.664 32.256 44.032 102.912 65.536 56.32 159.232 12.288 169.984-6.656 64-39.936 62.976-48.128 32.256-74.752 54.784-43.008 39.936-19.968 33.28-8.192-27.136-59.392z m-465.92 72.704c-4.608 4.096-8.704 8.192-13.824 12.288-5.632-11.264-11.264-20.48-16.384-26.624 7.168-4.096 15.872-11.776 26.112-23.04 6.144-7.168 11.776-14.336 16.384-20.992 4.608-7.168 8.704-14.336 12.288-21.504l-49.152 2.048-1.024-22.016c6.144-15.872 10.24-32.256 12.288-49.664 2.56 0.512 5.12 1.536 7.68 2.56 2.048 0.512 4.608 1.024 7.168 1.536l13.312 3.072-8.192 38.4 29.184-1.024-2.048-48.64-35.84 0.512-24.064 1.536-1.024-26.112 69.12-2.048 31.744-1.536-6.656 25.6h-7.168l1.024 24.064-23.552 91.648-0.512-7.68c-7.168 11.776-15.36 22.528-24.064 33.28-5.12 5.632-9.216 10.24-12.8 14.336z m73.728-150.016h-5.12l4.608-17.408 0.512 17.408z m-48.128 155.648l-3.584 14.336c-1.536-5.632-3.072-10.752-5.12-14.848 3.072 0 6.144 0.512 8.704 0.512z m29.696 7.168c0 6.144-0.512 10.24-1.024 13.312-1.536 3.584-4.608 6.144-9.216 7.68-6.656 2.56-13.824 4.096-21.504 4.608-1.024 0-2.56 0.512-3.584 0.512l36.352-140.288 22.016-1.024 1.024 26.112-27.136 0.512 3.072 88.576z m116.224-21.504c-6.656 8.704-17.408 14.848-31.744 17.92l-10.752 2.048c-1.024-4.608-2.048-9.216-3.584-13.312l-7.68-17.92c4.096 0.512 8.192 0.512 12.288 0.512 5.632 0 10.752-1.536 15.872-4.608 5.12-4.096 7.68-10.24 7.68-18.944-0.512-5.632-1.536-10.752-4.096-15.36-4.608-8.704-10.24-15.872-17.92-22.016-3.072-2.56-6.656-5.12-10.752-7.68l-0.512-12.288c4.096-11.264 6.656-20.48 8.704-27.648l5.632-23.552-26.624 1.024 5.632 157.696 2.048 27.648-28.16 1.024-0.512-27.136-5.632-158.208-1.536-24.576 77.824-2.56 11.776 15.36-23.552 61.44c1.536 1.536 3.072 2.56 5.12 3.584 1.024 1.024 2.56 1.536 3.584 2.56 16.896 14.336 25.6 32.768 26.624 54.272-0.512 11.264-3.584 21.504-9.728 30.72z" fill="#75428e" p-id="7235"></path></svg>