<?xml version="1.0" standalone="no"?><!DOCTYPE svg PUBLIC "-//W3C//DTD SVG 1.1//EN" "http://www.w3.org/Graphics/SVG/1.1/DTD/svg11.dtd"><svg t="1620787059180" class="icon" viewBox="0 0 1024 1024" version="1.1" xmlns="http://www.w3.org/2000/svg" p-id="6405" xmlns:xlink="http://www.w3.org/1999/xlink" width="200" height="200"><defs><style type="text/css"></style></defs><path d="M0 1024l185.295238-429.104762C146.285714 533.942857 124.342857 463.238095 124.342857 385.219048c0-148.72381 82.895238-275.504762 204.8-341.333334C385.219048 17.066667 446.171429 0 512 0s126.780952 17.066667 182.857143 46.32381c121.904762 65.828571 204.8 192.609524 204.8 341.333333 0 75.580952-21.942857 148.72381-60.952381 209.67619L1024 1024H0z" fill="#09390c" p-id="6406"></path><path d="M212.114286 455.92381c-24.380952-43.885714 58.514286-202.361905 297.447619-202.361905s343.771429 158.47619 329.142857 202.361905c-14.628571 43.885714-275.504762-29.257143-326.704762-29.257143s-270.628571 73.142857-299.885714 29.257143z" fill="#FFFFFF" p-id="6407"></path><path d="M375.466667 416.914286c-51.2 0-102.4-14.628571-102.4-43.885715 0-58.514286 207.238095-58.514286 207.238095 0-2.438095 26.819048-53.638095 43.885714-104.838095 43.885715z m0-73.142857c-51.2 0-85.333333 17.066667-85.333334 26.819047 0 12.190476 34.133333 26.819048 85.333334 26.819048s85.333333-17.066667 85.333333-26.819048c0-9.752381-34.133333-26.819048-85.333333-26.819047z" fill="#09390c" p-id="6408"></path><path d="M336.457143 363.27619a39.009524 31.695238 0 1 0 78.019047 0 39.009524 31.695238 0 1 0-78.019047 0Z" fill="#09390c" p-id="6409"></path><path d="M655.847619 416.914286c-51.2 0-102.4-14.628571-102.4-43.885715 0-58.514286 207.238095-58.514286 207.238095 0-2.438095 26.819048-53.638095 43.885714-104.838095 43.885715z m0-73.142857c-51.2 0-85.333333 17.066667-85.333333 26.819047 0 12.190476 34.133333 26.819048 85.333333 26.819048s85.333333-17.066667 85.333333-26.819048c0-9.752381-34.133333-26.819048-85.333333-26.819047z" fill="#09390c" p-id="6410"></path><path d="M614.4 363.27619a39.009524 31.695238 0 1 0 78.019048 0 39.009524 31.695238 0 1 0-78.019048 0Z" fill="#09390c" p-id="6411"></path></svg>