<?xml version="1.0" standalone="no"?><!DOCTYPE svg PUBLIC "-//W3C//DTD SVG 1.1//EN" "http://www.w3.org/Graphics/SVG/1.1/DTD/svg11.dtd"><svg t="1621520527650" class="icon" viewBox="0 0 1024 1024" version="1.1" xmlns="http://www.w3.org/2000/svg" p-id="3166" xmlns:xlink="http://www.w3.org/1999/xlink" width="200" height="200"><defs><style type="text/css"></style></defs><path d="M428 787.9l43.3 5 4.3-47.2-39.1-4.5zM523.2 743.2l10.2 46 43.3-5.1-10.2-45.9zM504.3 300.8c32.2-1 32-17.3 65.8-4.8-8.2-18.1-32.9-64.4-67.8-65.4-45.8 0-61.9 58.9-62.9 69.2 28.1-13.4 35.1 1.9 64.9 1zM729.6 509.4c-27.3-27.1-126-108.3-148.1-123.8-3.9-2.6-6.5-5.1-9.1-7.7-13 6.5-33.8 19.4-41.6 33.6-9.1 16.8-25.5 43.1-25.5 43.1s-17.4-23.8-23.9-43.1c-5.2-15.5-28.6-24.5-42.9-32.3-2.6 2.6-6.5 5.2-7.8 7.7-9.1 6.4-155.9 123.8-165 135.4-7.8 11.6-3.9 24.5 13 24.5 9.1 0 26 1.2 40.3 6.4l15.9-3.6 43.8-64.7-37.7 87.7c10.4 21.9 19.5 42.6 24.7 62 3.9 11.6 14.3 18 26 20.7l16.7-33.5 24.2-42.3-17.5 79.6c18.2 1.3 42.9-12.9 75.4-12.9 27.3 0 50.7 9.1 75.3 11.6l-8.6-73.3c-2.1 0.8-4.3 1.5-6.7 2l-6.4 1.2c-0.7-2.8-1.4-5.4-2.1-7.9l-4.5-10.8c2.4 0.3 4.8 0.4 7.2 0.3 3.3-0.1 6.5-1 9.4-2.7 0.4-0.3 0.7-0.6 1-0.9l-2.2-18.9 4 16.5c1.2-2.1 1.7-4.7 1.6-7.9-0.2-3.4-1-6.4-2.3-9.2-2.6-5.1-6.1-9.5-10.6-13.1-1.9-1.5-4-3-6.3-4.6l-0.3-7.3c2.3-6.7 4-12.2 5.1-16.4l3.5-13.9-16 0.6 3.5 93.3 1.2 16.2-16.8 0.6-0.2-16.2-3.5-93.6-0.9-14.5 46.2-1.4 7.1 9-14.1 36.5c0.9 0.8 1.9 1.5 2.9 2.2 0.7 0.5 1.4 1 2 1.6 10 8.6 15.3 19.3 15.7 32.2 0.3 7-1.5 13.1-5.2 18.3-2.1 2.7-4.8 4.9-8 6.7L575 638l15.6 19.7c24.7-5.2 45.5-23.2 63.7-49 3.9-5.2 7.8-11.6 11.7-16.8l-22.2-81 24.2 38.7 14.9 13.9c11.7-16.8 23.4-29.7 33.7-29.7 20.8 0.1 44.2 4 13-24.4zM467.3 581c-2.6 2.6-5.3 5-8.2 7.3-3.4-6.7-6.7-12-9.9-15.9 4.3-2.4 9.5-6.9 15.4-13.6 3.8-4.2 7-8.4 9.7-12.5 2.7-4.1 5.2-8.4 7.4-12.7l-29.2 1.1-0.5-13.1c3.8-9.3 6.2-19.1 7.2-29.3 1.5 0.4 3 0.9 4.4 1.4 1.4 0.4 2.7 0.8 4.2 1l7.8 1.7-4.8 22.8 17.3-0.6-1.1-28.8-20.9 0.8-14.3 0.9-0.6-15.4 41.2-1.3 18.9-0.9-3.9 15.1c-1.6 0-3.2 0-4.3 0.1l0.5 14.3-14 54.1-0.2-4.5c-4.3 6.9-9.1 13.5-14.5 19.6-2.8 3.3-5.3 6-7.6 8.4z m43.9-88.8h-3.1l2.7-10.4 0.4 10.4z m-28.5 92.3l-2.2 8.4c-1-3.3-2-6.4-3.1-8.9 2.1 0.2 3.8 0.4 5.3 0.5z m17.6 4.1c0.1 3.6-0.2 6.2-0.7 7.8-0.9 2-2.7 3.6-5.5 4.5-3.8 1.6-8.1 2.5-12.9 2.8-0.6 0.1-1.4 0.2-2.1 0.2l21.5-82.9 13.2-0.7 0.6 15.4-16.1 0.3 2 52.6z" fill="#5472EF" p-id="3167"></path><path d="M512 64C264.6 64 64 264.6 64 512s200.6 448 448 448 448-200.6 448-448S759.4 64 512 64z m259.1 497c-15.6 5.2-25.9-11.6-50.6 0-11.7 5.2-19.5 18.1-26 32.3l1.3 5.1h-3.9c-7.8 15.5-13 29.7-22.1 37.5-15.2 13.9-63.7 51.3-93.1 57.1l14.4 80.5c0 31.7 16.2 37.2-15.7 37.2h-66.3l-11.2-96.4-8.7 96.4-46.4-1.6c-31.9 0-33.9-3.9-33.9-35.6l14.9-80.1c-15.8-2.5-41.9-16.4-57.9-20.2-20.8-5.1-22.1-15.5-24.7-37.4-3.9-21.9-19.5-36.1-24.7-50.3-6.5-12.9-52-9.1-63.6-12.9-10.4-3.8-16.9-27.1-13-50.3 3.9-23.2 118.2-108.3 139-125.1 20.8-15.5 35.2-28.5 37.7-37.4 0.4-13.1-2.1-146.5 84-146.5 92.9 0 89.8 135.3 91.4 147.8 3.9 9 3.9 5.2 15.6 12.9 11.7 6.5 141.6 117.4 163.7 136.7 22 19.4 15.4 45.1-0.2 50.3z" fill="#5472EF" p-id="3168"></path></svg>